<svg width="66" height="69" viewBox="0 0 66 69" fill="none" xmlns="http://www.w3.org/2000/svg">
<path fill-rule="evenodd" clip-rule="evenodd" d="M35.5444 14.7424C35.5191 18.7483 35.0656 22.3374 34.3721 24.8933C34.0233 26.1787 33.6287 27.1463 33.2342 27.7684C33.0377 28.0782 32.8656 28.2632 32.7349 28.363C32.6724 28.4108 32.6274 28.4329 32.6009 28.4428C32.5765 28.4521 32.5647 28.4523 32.5607 28.4522C32.5568 28.4522 32.545 28.4519 32.5207 28.4424C32.4944 28.4321 32.4496 28.4095 32.3877 28.361C32.2583 28.2597 32.0886 28.0728 31.896 27.7608C31.5094 27.1343 31.127 26.1623 30.7945 24.8731C30.1333 22.3095 29.7253 18.7156 29.7507 14.7098C29.776 10.7039 30.2294 7.11483 30.923 4.55887C31.2717 3.27353 31.6664 2.30591 32.0609 1.68382C32.2574 1.374 32.4295 1.18904 32.5601 1.08923C32.6227 1.04142 32.6677 1.01933 32.6941 1.00936C32.7186 1.00013 32.7303 0.999929 32.7343 0.999952C32.7383 0.999974 32.75 1.00031 32.7744 1.00982C32.8007 1.02008 32.8454 1.04268 32.9074 1.09119C33.0368 1.19246 33.2065 1.37935 33.399 1.69137C33.7857 2.31787 34.168 3.28988 34.5005 4.57906C35.1617 7.14266 35.5697 10.7366 35.5444 14.7424ZM36.5444 14.7481C36.493 22.8811 34.7066 29.4644 32.5544 29.4522C30.4022 29.4401 28.6993 22.8371 28.7507 14.7041C28.8021 6.57109 30.5885 -0.0121733 32.7406 -2.82357e-05C34.8928 0.0121169 36.5958 6.61507 36.5444 14.7481ZM44.8933 58.9246C46.889 55.6157 48.9111 52.2629 52.0385 50.2931C59.8323 45.3843 43.315 31.8851 32.5539 31.8851C21.7929 31.8851 6.5741 45.3843 13.0694 50.2931C15.4207 52.0702 17.2129 54.9729 19.053 57.9535C22.2962 63.2065 25.6885 68.7011 32.5539 68.7011C38.997 68.7011 41.9156 63.8619 44.8933 58.9246ZM55.581 38.2562C57.1152 37.7331 58.9717 36.6443 60.7455 35.086C62.5193 33.5277 63.8034 31.8574 64.4669 30.4497C64.7996 29.7441 64.9551 29.1491 64.9708 28.6942C64.9864 28.2448 64.867 28.0067 64.7403 27.8781C64.6137 27.7494 64.3711 27.6196 63.8955 27.6016C63.414 27.5835 62.7747 27.6868 62.0056 27.9491C60.4714 28.4721 58.6148 29.561 56.8411 31.1192C55.0673 32.6775 53.7831 34.3479 53.1196 35.7555C52.787 36.4612 52.6314 37.0561 52.6157 37.5111C52.6001 37.9605 52.7196 38.1985 52.8462 38.3272C52.9729 38.4559 53.2155 38.5857 53.6911 38.6036C54.1725 38.6218 54.8118 38.5184 55.581 38.2562ZM52.0949 38.9872C53.5605 40.4762 57.7476 39.0487 61.447 35.7987C65.1463 32.5488 66.9572 28.7071 65.4916 27.2181C64.026 25.7291 59.839 27.1566 56.1396 30.4066C52.4402 33.6565 50.6294 37.4982 52.0949 38.9872ZM52.1101 18.2934C51.0525 22.1734 49.6871 25.5509 48.3549 27.8712C47.685 29.038 47.0523 29.8864 46.5086 30.3995C46.2378 30.6552 46.023 30.795 45.8708 30.8616C45.7979 30.8935 45.7491 30.9044 45.7217 30.9079C45.6965 30.9111 45.6863 30.9086 45.6838 30.908C45.6813 30.9074 45.6711 30.9049 45.6506 30.8906C45.6285 30.8751 45.5912 30.8433 45.5437 30.7821C45.4445 30.6543 45.3279 30.4338 45.2215 30.0864C45.0078 29.389 44.8875 28.3575 44.8974 27.0301C44.9172 24.3905 45.4482 20.81 46.5058 16.9299C47.5634 13.0499 48.9288 9.67241 50.261 7.35211C50.931 6.18527 51.5637 5.33689 52.1073 4.82376C52.3781 4.56813 52.5929 4.42829 52.7451 4.36165C52.818 4.32975 52.8668 4.31888 52.8942 4.3154C52.9194 4.3122 52.9296 4.31469 52.9321 4.3153C52.9346 4.31591 52.9449 4.31841 52.9653 4.3327C52.9875 4.34823 53.0247 4.38004 53.0722 4.44122C53.1714 4.56904 53.288 4.78948 53.3944 5.13689C53.6081 5.83427 53.7284 6.86583 53.7185 8.19324C53.6988 10.8328 53.1677 14.4133 52.1101 18.2934ZM53.0818 18.5297C50.935 26.406 47.505 32.3798 45.4208 31.8728C43.3366 31.3658 43.3873 24.5698 45.5342 16.6936C47.681 8.81734 51.1109 2.84345 53.1951 3.3505C55.2793 3.85755 55.2286 10.6535 53.0818 18.5297ZM13.6985 34.7624C13.0912 32.7421 11.8061 30.1544 9.96603 27.5042C8.12598 24.854 6.12552 22.7095 4.40601 21.3785C3.54147 20.7093 2.79464 20.2822 2.2118 20.0797C1.60956 19.8705 1.37423 19.9602 1.31081 19.9995C1.24738 20.0388 1.06655 20.207 1.02977 20.8122C0.994177 21.3979 1.11131 22.2152 1.41665 23.231C2.02397 25.2513 3.30907 27.839 5.14911 30.4892C6.98916 33.1394 8.98962 35.2838 10.7091 36.6149C11.5737 37.2841 12.3205 37.7112 12.9033 37.9137C13.5056 38.1229 13.7409 38.0332 13.8043 37.9939C13.8678 37.9546 14.0486 37.7864 14.0854 37.1812C14.121 36.5955 14.0038 35.7782 13.6985 34.7624ZM14.3747 38.8153C16.1743 37.7001 14.581 32.4001 10.816 26.9774C7.05108 21.5548 2.5401 18.0629 0.74049 19.1781C-1.05912 20.2933 0.534123 25.5933 4.29909 31.016C8.06406 36.4386 12.575 39.9305 14.3747 38.8153ZM20.694 17.2254C21.927 20.925 22.6213 24.3626 22.7634 26.9159C22.8348 28.2 22.7629 29.2024 22.5838 29.8859C22.3908 30.6223 22.1567 30.7073 22.1551 30.7078C22.1536 30.7082 21.9102 30.7653 21.3054 30.2662C20.7441 29.8029 20.0773 29.0202 19.3572 27.9291C17.9253 25.7594 16.4099 22.566 15.177 18.8664C13.944 15.1668 13.2497 11.7292 13.1076 9.17591C13.0362 7.89184 13.1081 6.8894 13.2872 6.20593C13.4802 5.46952 13.7143 5.38449 13.7159 5.38404C13.7174 5.38358 13.9608 5.32656 14.5656 5.82568C15.1269 6.28892 15.7936 7.07165 16.5138 8.16277C17.9457 10.3324 19.4611 13.5258 20.694 17.2254ZM21.6525 16.9403C24.1576 24.4572 24.5242 31.0459 22.4713 31.6565C20.4184 32.2671 16.7235 26.6685 14.2185 19.1515C11.7134 11.6346 11.3468 5.04595 13.3997 4.43533C15.4526 3.82471 19.1475 9.42338 21.6525 16.9403Z" fill="white"/>
</svg>
