<svg width="43" height="70" viewBox="0 0 43 70" fill="none" xmlns="http://www.w3.org/2000/svg">
<path fill-rule="evenodd" clip-rule="evenodd" d="M41 22.8846C41 25.6238 39.7965 29.833 37.7852 34.8318C35.8055 39.752 33.1528 45.1791 30.4807 50.2494C27.8118 55.3136 25.1405 59.99 23.1351 63.4022C22.5207 64.4476 21.9692 65.3737 21.5 66.155C21.0308 65.3737 20.4793 64.4476 19.8649 63.4022C17.8595 59.99 15.1882 55.3136 12.5193 50.2494C9.84723 45.1791 7.19448 39.752 5.21482 34.8318C3.20346 29.833 2 25.6238 2 22.8846C2 11.2309 10.8462 2 21.5 2C32.1538 2 41 11.2309 41 22.8846ZM43 22.8846C43 33.7343 27.1563 60.6765 22.6706 68.0871C21.9309 69.3091 21.5 70 21.5 70C21.5 70 21.0691 69.3091 20.3294 68.0871C15.8437 60.6765 0 33.7343 0 22.8846C0 10.2458 9.62588 0 21.5 0C33.3741 0 43 10.2458 43 22.8846ZM21.5003 25C24.9927 25 27.8238 22.2018 27.8238 18.75C27.8238 15.2983 24.9927 12.5001 21.5003 12.5001C18.0079 12.5001 15.1768 15.2983 15.1768 18.75C15.1768 22.2018 18.0079 25 21.5003 25Z" fill="white"/>
</svg>
